<!DOCTYPE svg PUBLIC "-//W3C//DTD SVG 1.1//EN" "http://www.w3.org/Graphics/SVG/1.1/DTD/svg11.dtd">
<!-- Uploaded to: SVG Repo, www.svgrepo.com, Transformed by: SVG Repo Mixer Tools -->
<svg fill="#ffffff" width="800px" height="800px" viewBox="0 0 24 24" id="rocket-right" data-name="Flat Line" xmlns="http://www.w3.org/2000/svg" class="icon flat-line" stroke="#ffffff">
<g id="SVGRepo_bgCarrier" stroke-width="0"/>
<g id="SVGRepo_tracerCarrier" stroke-linecap="round" stroke-linejoin="round"/>
<g id="SVGRepo_iconCarrier">
<path id="secondary" d="M10.69,18.79c8-5.81,9.88-12,10.3-14.64A1,1,0,0,0,19.85,3C17.24,3.43,11,5.27,5.21,13.31Z" style="fill: #2ca9bc; stroke-width: 2;"/>
<path id="primary" d="M15.84,14.18A5.92,5.92,0,0,1,14.32,21L11.5,18.18h0" style="fill: none; stroke: #ffffff; stroke-linecap: round; stroke-linejoin: round; stroke-width: 2;"/>
<path id="primary-2" data-name="primary" d="M9.82,8.16A5.92,5.92,0,0,0,3,9.68L5.82,12.5h0" style="fill: none; stroke: #ffffff; stroke-linecap: round; stroke-linejoin: round; stroke-width: 2;"/>
<path id="primary-3" data-name="primary" d="M10.69,18.79c8-5.81,9.88-12,10.3-14.64A1,1,0,0,0,19.85,3C17.24,3.43,11,5.27,5.21,13.31Zm-2,.8,1.42-1.42L5.83,13.92,4.41,15.34a1,1,0,0,0,0,1.41l2.84,2.84A1,1,0,0,0,8.66,19.59Z" style="fill: none; stroke: #ffffff; stroke-linecap: round; stroke-linejoin: round; stroke-width: 2;"/>
</g>
</svg>